<svg width="149" height="32" viewBox="0 0 149 32" fill="none" xmlns="http://www.w3.org/2000/svg">
<path d="M83.5412 29.3078C83.6478 29.7987 83.6981 30.0944 83.7759 30.383C83.9938 31.1947 83.7735 31.53 82.9342 31.5384C81.1527 31.5563 79.3711 31.5444 77.5895 31.5444C76.3539 31.5444 75.1183 31.5491 73.8827 31.5432C72.8902 31.5384 72.6902 31.4103 72.3514 30.4907C71.7084 28.7403 71.0811 26.9839 70.4525 25.2286C70.0394 24.0757 69.8814 23.9583 68.641 23.9571C65.9974 23.9571 63.3538 23.9571 60.7101 23.9571C59.3847 23.9571 59.3249 23.9942 58.8675 25.2837C58.3096 26.8522 57.766 28.4242 57.2141 29.9939C57.1195 30.2644 57.0201 30.5338 56.9147 30.8008C56.6777 31.4055 56.1916 31.5527 55.5965 31.5479C54.0736 31.5372 52.5506 31.5444 51.0277 31.5444C50.3955 31.5444 49.7621 31.5168 49.1312 31.5515C48.3781 31.5934 47.8896 31.2965 47.5615 30.6093C46.4265 28.2255 45.2651 25.8536 44.1109 23.4782C43.7218 22.6784 43.3315 21.8786 42.9292 21.0848C42.8406 20.9088 42.7352 20.7005 42.5784 20.6107C42.3761 20.4946 42.0767 20.3808 41.8888 20.4515C41.7032 20.5209 41.5631 20.8059 41.4817 21.0262C41.4158 21.2034 41.4649 21.4237 41.4649 21.6248C41.4649 24.3834 41.4649 27.1419 41.4649 29.9005C41.4649 30.1016 41.4781 30.304 41.4565 30.5039C41.3751 31.2666 41.077 31.5384 40.2652 31.5408C37.909 31.5491 35.5527 31.5444 33.1964 31.5444C32.7367 31.5444 32.2769 31.5587 31.8172 31.5396C31.0569 31.5084 30.7899 31.245 30.7803 30.474C30.7647 29.1522 30.7851 27.8304 30.7683 26.5086C30.7635 26.1554 30.6797 25.8033 30.633 25.4501C30.566 25.4274 30.4989 25.4047 30.4319 25.3819C30.214 25.6166 29.9709 25.8333 29.7842 26.0907C29.0203 27.1419 28.1535 28.089 27.1094 28.8708C25.0405 30.4213 22.6986 31.3025 20.1604 31.6761C19.0852 31.8341 17.9957 31.9885 16.9133 31.985C13.9728 31.9742 11.0789 31.6581 8.35508 30.4081C4.99309 28.8648 2.71106 26.3469 1.45151 22.882C0.820541 21.1435 0.539178 19.3488 0.395504 17.5025C0.220699 15.272 0.38832 13.0845 0.907944 10.9318C2.28842 5.22794 5.9198 1.77974 11.6165 0.529773C13.0341 0.218477 14.5079 0.0340948 15.9591 0.0173327C19.1079 -0.0197832 22.1957 0.380111 25.0585 1.84679C26.8771 2.77948 28.4193 4.02586 29.6249 5.68769C29.8608 6.01336 30.014 6.46354 30.6247 6.58686C30.6797 6.19534 30.7659 5.84574 30.7707 5.49493C30.7875 4.23059 30.7719 2.96626 30.7791 1.70192C30.7851 0.691407 31.003 0.453146 31.9812 0.451949C36.8087 0.444765 41.6361 0.412438 46.4624 0.463922C48.9731 0.491459 51.43 0.91051 53.7204 2.02878C56.5747 3.42362 58.2054 5.69847 58.5897 8.85213C58.6652 9.47592 58.6688 10.1081 58.7107 10.7355C58.7298 11.0348 58.7586 11.3329 58.7837 11.631C58.8555 11.6442 58.9262 11.6586 58.998 11.6717C59.1968 11.2503 59.4314 10.842 59.5895 10.4074C60.3557 8.30497 61.1017 6.19534 61.8559 4.08931C62.1648 3.22487 62.4618 2.35564 62.7886 1.49838C63.1335 0.593229 63.3526 0.451949 64.3283 0.449554C66.6846 0.444765 69.0409 0.444765 71.3971 0.449554C72.4591 0.450751 72.6507 0.584848 73.035 1.61212C74.3712 5.18603 75.6966 8.76473 77.0376 12.3374C77.1824 12.7242 77.3944 13.0869 77.6027 13.5168C78.0205 13.2091 78.0241 12.8595 78.0756 12.535C78.3211 11.0013 78.6779 9.49747 79.316 8.07269C80.8114 4.73585 83.3521 2.55559 86.7667 1.3547C88.5615 0.723733 90.4161 0.369336 92.3174 0.277145C93.2608 0.231648 94.2067 0.15981 95.1502 0.169388C97.8764 0.195729 100.587 0.396873 103.239 1.07574C103.547 1.15476 103.741 1.06736 103.914 0.853041C104.198 0.502235 104.575 0.444765 104.995 0.445962C107.869 0.453146 110.742 0.443568 113.616 0.453146C114.589 0.456738 114.802 0.690209 114.802 1.70791C114.805 9.69622 114.804 17.6857 114.804 25.674C114.804 27.3862 114.824 27.4065 116.536 27.4065C118.519 27.4065 120.502 27.4101 122.484 27.4041C123.352 27.4017 123.539 27.2197 123.593 26.3577C123.61 26.1003 123.599 25.8405 123.599 25.5818C123.599 17.7085 123.599 9.83391 123.599 1.96053C123.599 0.586045 123.738 0.448357 125.136 0.448357C132.263 0.448357 139.389 0.448357 146.514 0.448357C146.744 0.448357 146.975 0.439976 147.204 0.456738C147.663 0.491459 147.995 0.745285 148.02 1.19666C148.067 2.05392 148.054 2.91597 148.032 3.77562C148.022 4.15995 147.772 4.41737 147.395 4.4916C147.09 4.55147 146.772 4.5814 146.461 4.5826C142.984 4.58858 139.507 4.58619 136.03 4.58619C135.829 4.58619 135.627 4.57661 135.427 4.58978C134.862 4.62929 134.682 4.81367 134.637 5.39196C134.626 5.53444 134.633 5.67931 134.633 5.82299C134.633 7.97811 134.632 10.1332 134.633 12.2883C134.633 13.4234 134.771 13.5946 135.913 13.6018C138.844 13.6185 141.775 13.6018 144.705 13.5982C144.82 13.5982 144.935 13.5838 145.05 13.5838C146.121 13.5838 146.35 13.8137 146.357 14.9068C146.361 15.4815 146.37 16.0562 146.353 16.6309C146.333 17.305 146.029 17.6211 145.364 17.6845C145.165 17.7037 144.962 17.6905 144.761 17.6905C141.773 17.6905 138.784 17.6881 135.796 17.6917C134.77 17.6929 134.637 17.8222 134.634 18.8196C134.63 21.3195 134.628 23.8194 134.634 26.3194C134.637 27.27 134.776 27.4017 135.75 27.4029C139.256 27.4065 142.762 27.4041 146.267 27.4041C146.468 27.4041 146.67 27.3969 146.871 27.4065C147.757 27.4496 148.045 27.7298 148.076 28.6218C148.097 29.1953 148.097 29.7712 148.076 30.3459C148.044 31.2606 147.773 31.5204 146.879 31.542C146.735 31.5455 146.592 31.542 146.448 31.542C132.77 31.542 119.094 31.542 105.416 31.5444C104.806 31.5444 104.21 31.5851 103.772 31.0187C103.69 30.9134 103.399 30.8942 103.235 30.9421C101.489 31.4498 99.6915 31.6066 97.8908 31.706C96.46 31.785 95.0221 31.8628 93.5925 31.8137C90.9752 31.7239 88.3975 31.3552 85.9586 30.3231C85.4569 30.1112 84.978 29.8466 84.4799 29.6251C84.2369 29.5173 83.9747 29.4515 83.5389 29.3042L83.5412 29.3078ZM31.264 21.0741C31.3454 21.0968 31.4268 21.1208 31.5095 21.1435C31.7417 21.6607 31.8219 22.2139 31.8112 22.7862C31.7741 24.9377 31.7214 27.0892 31.7034 29.2408C31.6938 30.3351 31.9417 30.6057 32.9857 30.6165C35.0546 30.6392 37.1235 30.6404 39.1913 30.6165C40.2293 30.6045 40.4317 30.3614 40.4329 29.3174C40.4352 26.5301 40.4329 23.7428 40.4352 20.9555C40.4352 20.6969 40.4341 20.4371 40.4628 20.1809C40.5095 19.775 40.7046 19.4984 41.1381 19.399C42.1091 19.1764 43.3291 19.2147 43.7685 20.5006C43.796 20.5808 43.8487 20.6526 43.887 20.7304C45.2843 23.6255 46.7066 26.5086 48.062 29.4228C48.4403 30.2357 48.9659 30.6284 49.8388 30.6248C51.4766 30.6188 53.1145 30.6392 54.7524 30.6176C55.8192 30.6033 56.0108 30.4393 56.3688 29.424C56.9878 27.6651 57.602 25.9039 58.2222 24.1463C58.5574 23.198 58.9537 22.9287 59.9451 22.9299C63.0748 22.9334 66.2057 22.9143 69.3354 22.943C70.5674 22.9538 70.7817 23.2316 71.0882 24.1008C71.7001 25.8321 72.331 27.5562 72.9536 29.2839C73.3116 30.2776 73.2841 30.5949 74.8262 30.6165C76.9514 30.6464 79.079 30.6284 81.2041 30.6188C81.4879 30.6188 81.7717 30.5578 82.0542 30.5183C82.4709 30.4608 82.5726 30.1711 82.4828 29.8262C82.3895 29.4683 82.2206 29.1294 82.0961 28.7786C81.9333 28.3201 81.7549 27.8651 81.6352 27.3945C81.5849 27.1982 81.6699 26.9683 81.6926 26.754C81.9297 26.7839 82.1775 26.7803 82.4002 26.8534C82.5523 26.9037 82.666 27.0641 82.8037 27.1683C83.4419 27.6532 84.0441 28.1967 84.7278 28.6062C87.2002 30.0908 89.9551 30.6488 92.7831 30.7697C94.7838 30.8559 96.7952 30.7529 98.7983 30.6584C99.8232 30.6105 100.848 30.4333 101.86 30.2429C102.515 30.1196 102.737 29.5712 102.551 28.8121C102.446 28.3907 102.16 28.2817 101.523 28.3368C99.3239 28.5284 97.1245 28.696 94.9167 28.4362C92.2635 28.1237 90.3885 26.7899 89.3708 24.2864C88.6477 22.5072 88.3939 20.6311 88.2753 18.7453C88.1293 16.4262 88.1376 14.0998 88.4106 11.7831C88.583 10.3248 88.8548 8.89164 89.4331 7.53511C90.1802 5.78228 91.3955 4.48202 93.2465 3.93247C94.1708 3.65829 95.1514 3.50144 96.1152 3.45355C97.9758 3.36016 99.8399 3.43919 101.692 3.68942C102.233 3.76245 102.511 3.52778 102.565 3.00696C102.657 2.11019 102.449 1.80369 101.514 1.69234C99.7813 1.48521 98.0452 1.25533 96.3044 1.16553C93.4572 1.01946 90.6268 1.21462 87.8706 2.02399C84.8343 2.91597 82.3763 4.58978 80.7647 7.37587C79.8321 8.98982 79.2945 10.7474 79.0933 12.5841C78.9377 14.0053 78.9449 15.4444 78.8886 16.8764C78.8718 17.3014 78.9137 17.7372 78.4444 18.1191C78.2468 17.8689 78.017 17.6582 77.8865 17.3972C77.6709 16.9626 77.5105 16.4992 77.3417 16.0419C75.6571 11.4957 73.9677 6.95203 72.3011 2.39994C72.0628 1.74861 71.639 1.43013 70.9781 1.37985C70.7494 1.36189 70.5183 1.36428 70.2896 1.36428C68.6805 1.36428 67.0713 1.36189 65.4622 1.36428C63.9775 1.36668 63.859 1.43612 63.349 2.85132C61.9206 6.81913 60.5006 10.7905 59.0842 14.7619C58.0725 17.5983 57.0716 20.4383 56.0635 23.2771C55.9377 23.6315 55.8156 24.0266 55.3618 24.0505C54.9524 24.0721 54.7955 23.7153 54.6267 23.4148C54.5573 23.2902 54.4986 23.1573 54.4351 23.0292C53.8832 21.9253 53.3301 20.8214 52.7781 19.7175C52.0717 18.3047 52.0944 18.2293 53.445 17.4403C57.1494 15.278 58.3659 11.8537 57.4296 7.8943C56.8285 5.35126 55.1763 3.71097 52.8248 2.68609C50.3177 1.59297 47.6525 1.42415 44.9861 1.37985C41.1081 1.31639 37.2289 1.36309 33.3497 1.36309C33.206 1.36309 33.0623 1.3571 32.9187 1.36548C31.9668 1.42774 31.7202 1.666 31.7034 2.64179C31.6831 3.84866 31.6938 5.05553 31.6998 6.26239C31.7022 6.74969 31.7286 7.23699 31.7441 7.72428C31.7645 8.38279 31.8447 9.04729 31.7824 9.69742C31.7453 10.0841 31.8231 10.5762 31.288 10.9306C31.106 10.6828 30.8929 10.4673 30.7707 10.2087C30.5624 9.76925 30.4127 9.30231 30.2343 8.84854C29.0347 5.80503 26.9011 3.66667 23.9115 2.38078C22.185 1.63846 20.3711 1.27808 18.4961 1.11285C15.722 0.869803 12.9922 1.03263 10.3366 1.87313C6.34603 3.13867 3.60903 5.73559 2.28483 9.73094C0.995345 13.6245 0.9714 17.5768 2.03938 21.5075C3.03193 25.1604 5.22178 27.8878 8.70948 29.4982C10.7197 30.4261 12.8569 30.832 15.0395 30.9529C17.3659 31.0822 19.6838 30.9265 21.9455 30.2944C25.954 29.1725 28.879 26.8246 30.3421 22.8329C30.4798 22.4557 30.6151 22.075 30.7947 21.717C30.912 21.4835 31.1048 21.2872 31.264 21.0753V21.0741ZM125.898 30.6248C132.392 30.6248 138.886 30.626 145.38 30.62C145.749 30.62 146.12 30.5722 146.485 30.5123C146.643 30.4859 146.853 30.4153 146.927 30.2944C147.198 29.8586 147.238 29.3844 147.039 28.8936C146.863 28.4589 146.503 28.429 146.116 28.4302C145.944 28.4302 145.772 28.4122 145.6 28.4122C142.296 28.4122 138.991 28.4122 135.687 28.411C135.286 28.411 134.885 28.4003 134.484 28.3931C134.001 28.3835 133.758 28.0842 133.655 27.6591C133.602 27.44 133.604 27.2042 133.604 26.9755C133.6 24.0158 133.598 21.0561 133.604 18.0952C133.606 16.9458 133.886 16.6848 135.033 16.6884C137.907 16.6992 140.78 16.7075 143.652 16.7111C143.996 16.7111 144.341 16.686 144.684 16.6573C145.038 16.6285 145.234 16.437 145.341 16.085C145.633 15.1175 145.27 14.5895 144.253 14.5883C141.179 14.5836 138.104 14.5883 135.029 14.5847C133.904 14.5836 133.607 14.2878 133.605 13.1516C133.599 10.4218 133.598 7.69196 133.605 4.96094C133.607 3.8319 133.909 3.55053 135.053 3.55412C138.387 3.56251 141.72 3.57208 145.052 3.57807C145.454 3.57807 145.857 3.57568 146.258 3.54934C146.85 3.50983 147.109 3.3003 147.141 2.71363C147.188 1.86355 147.045 1.51873 146.186 1.38943C146.017 1.36428 145.842 1.36787 145.67 1.36668C139.118 1.36668 132.567 1.36189 126.015 1.36907C124.734 1.37027 124.576 1.54388 124.576 2.80702C124.576 10.7953 124.576 18.7848 124.576 26.7732C124.576 27.0318 124.596 27.294 124.56 27.5478C124.49 28.0507 124.234 28.3009 123.727 28.3823C123.502 28.4182 123.27 28.4242 123.041 28.4242C120.627 28.4218 118.214 28.4158 115.8 28.4098C115.456 28.4098 115.108 28.441 114.769 28.3991C114.144 28.3224 113.925 28.0662 113.89 27.4448C113.877 27.2162 113.887 26.9851 113.887 26.7552C113.887 22.1001 113.887 17.4439 113.887 12.7888C113.887 9.45556 113.881 6.12231 113.89 2.78786C113.893 1.69952 113.684 1.4014 112.47 1.36428C112.441 1.36428 112.413 1.36428 112.384 1.36428C110.315 1.36428 108.246 1.36069 106.177 1.36907C105.923 1.36907 105.667 1.42295 105.415 1.46845C105.021 1.54148 104.823 1.79411 104.81 2.18922C104.802 2.44783 104.805 2.70644 104.805 2.96506C104.805 11.6155 104.805 20.2647 104.805 28.9151C104.805 30.5123 104.914 30.6224 106.502 30.6224C112.967 30.6224 119.432 30.6224 125.898 30.6224V30.6248ZM103.604 27.1683C103.832 26.469 103.943 11.7256 103.768 5.54881C103.761 5.30217 103.71 5.05672 103.682 4.82804C102.511 4.73465 101.429 4.66162 100.35 4.55985C98.4032 4.37666 96.4588 4.28687 94.5192 4.60774C92.6263 4.92143 91.2602 5.93553 90.446 7.69076C89.6965 9.3071 89.4032 11.0324 89.3074 12.7792C89.2068 14.6111 89.208 16.4525 89.2451 18.288C89.2775 19.8947 89.5014 21.4907 89.9671 23.0352C90.6005 25.1377 91.7654 26.754 94.0439 27.2784C94.5168 27.3874 94.9993 27.4772 95.4818 27.5143C97.4047 27.6615 99.3227 27.5682 101.237 27.3658C102.029 27.282 102.822 27.2317 103.605 27.1671L103.604 27.1683ZM57.8115 15.0493C57.5194 15.1882 57.4236 15.2037 57.3769 15.26C56.4023 16.4358 55.3056 17.469 54.0077 18.2916C53.5276 18.5957 53.4833 18.8483 53.7371 19.3979C54.0724 20.1258 54.4447 20.837 54.8219 21.5446C54.8949 21.6823 55.0601 21.7721 55.2266 21.9241C55.3798 21.7505 55.563 21.6296 55.6229 21.4632C56.3556 19.3955 57.2093 17.3672 57.8127 15.0493H57.8115Z" fill="white"/>
</svg>
